<svg xmlns="http://www.w3.org/2000/svg" width="232" height="38" fill="none"><path fill="#FCFBFB" d="M22.826 19.42c-3.79 0-7.05 2.347-8.43 5.703-.889 2.164-2.964 3.593-5.27 3.593H4.613c-2.513 0-4.601-2.045-4.627-4.615-.013-2.583 2.036-4.681 4.563-4.681h18.276ZM4.563 38c3.789 0 7.05-2.347 8.429-5.704.89-2.163 2.964-3.593 5.271-3.593h4.511c2.514 0 4.602 2.046 4.628 4.616.012 2.583-2.037 4.681-4.563 4.681H4.563Z"/><path fill="#FCFBFB" d="M37.352 38h-1.65C35.702 17.964 19.682 1.678 0 1.678V0c9.976 0 19.359 3.947 26.41 11.133C33.46 18.305 37.351 27.85 37.351 38Z"/><path fill="#FCFBFB" d="M4.343 15.945c2.4 0 4.344-1.979 4.344-4.42 0-2.44-1.945-4.418-4.344-4.418S0 9.085 0 11.526c0 2.44 1.944 4.419 4.343 4.419ZM59.946 31.378c.98-.433 1.74-1.062 2.294-1.888.593-.878.89-1.967.89-3.291v-.38c0-1.312-.297-2.413-.877-3.305-.58-.892-1.418-1.56-2.513-2.02-1.083-.458-2.385-.681-3.88-.681h-7.166v17.715h4.408v-5.402h2.5l3.506 5.389h5.066l-4.228-6.137Zm-1.572-3.894c-.22.38-.503.682-.89.891-.373.21-.825.315-1.353.315h-3.029v-5.127h3.029c.516 0 .967.105 1.353.315.374.21.67.511.89.892.219.38.322.839.322 1.376-.013.499-.116.944-.322 1.338ZM86.085 19.944v17.57h-4.357v-13.19l-3.763 9.65h-3.996l-3.737-9.532v13.073H66.21v-17.57h6.11l3.544 9.27h.477l3.519-9.27h6.225ZM105.431 19.944h-7.05l-5.53 17.57h4.395l1.225-4.064h6.895l1.251 4.065h4.537l-5.723-17.57Zm-5.865 9.848 1.869-6.229h.89l1.92 6.229h-4.679ZM117.211 19.944v17.57h-4.304V23.118h-1.47v-3.173h5.774ZM134.457 37.515h-4.795l-3.854-6.202h-1.121v6.202h-4.305v-17.57h4.305V30.42l4.472-6.19h4.499l-4.125 5.665 4.924 7.619ZM141.958 38c-1.147 0-2.178-.17-3.08-.525-.903-.354-1.663-.839-2.282-1.468a6.47 6.47 0 0 1-1.417-2.164 7.057 7.057 0 0 1-.49-2.622v-.577c0-.957.167-1.862.502-2.701.336-.84.825-1.56 1.457-2.19.631-.63 1.392-1.115 2.294-1.469.902-.354 1.895-.524 3.003-.524 1.122 0 2.127.17 3.016.524.889.354 1.65.84 2.282 1.469a6.424 6.424 0 0 1 1.456 2.19c.335.839.503 1.73.503 2.7v.578c0 .93-.168 1.81-.49 2.622a6.457 6.457 0 0 1-1.418 2.164c-.619.63-1.379 1.114-2.281 1.468-.877.341-1.895.525-3.055.525Zm0-3.658c.657 0 1.212-.145 1.65-.433.438-.289.76-.695.979-1.22.22-.524.336-1.114.336-1.77 0-.695-.117-1.298-.349-1.823a2.978 2.978 0 0 0-1.005-1.245c-.438-.302-.979-.46-1.611-.46-.631 0-1.173.158-1.611.46a2.898 2.898 0 0 0-1.005 1.245c-.232.525-.348 1.128-.348 1.823 0 .656.116 1.246.335 1.77.219.525.554.931.992 1.22.451.288.993.433 1.637.433ZM164.217 29.91v7.605h-4.305v-7.723c0-.604-.18-1.115-.528-1.508-.361-.394-.838-.59-1.456-.59-.619 0-1.109.196-1.483.59-.373.393-.554.904-.554 1.547v7.684h-4.305V24.232h3.403v3.475c.077-.433.193-.84.335-1.194.348-.904.864-1.586 1.547-2.032.683-.446 1.521-.669 2.5-.669h.193c1.483 0 2.63.498 3.442 1.508.812.984 1.211 2.518 1.211 4.59ZM178.279 38c-1.611 0-2.965-.262-4.06-.774-1.096-.511-1.921-1.22-2.488-2.11-.554-.892-.837-1.915-.837-3.07h4.253c0 .42.116.8.348 1.142.232.34.567.616 1.031.8.451.196 1.044.288 1.753.288.619 0 1.134-.079 1.572-.236.439-.157.761-.38.993-.669.232-.288.348-.63.348-1.036 0-.511-.219-.904-.645-1.193-.425-.275-1.147-.459-2.152-.537l-1.109-.092c-1.778-.158-3.196-.735-4.253-1.705-1.057-.983-1.585-2.282-1.585-3.894 0-1.154.258-2.138.786-2.964.528-.813 1.276-1.442 2.23-1.875.966-.433 2.101-.655 3.402-.655 1.418 0 2.617.236 3.609.72.98.486 1.74 1.155 2.256 2.033.515.879.786 1.888.786 3.042h-4.253c0-.38-.09-.734-.284-1.062a2.084 2.084 0 0 0-.812-.76c-.361-.184-.786-.276-1.289-.276-.477 0-.876.079-1.198.223a1.698 1.698 0 0 0-.735.643 1.712 1.712 0 0 0-.245.918c0 .445.155.839.451 1.154.297.314.825.51 1.56.576l1.108.092c1.289.118 2.436.394 3.429.853.992.459 1.778 1.075 2.345 1.861.568.787.851 1.744.851 2.885 0 1.141-.283 2.138-.863 2.99-.58.852-1.392 1.508-2.462 1.98-1.07.472-2.346.708-3.841.708ZM191.941 27.405l-.013 4.812c0 .59.155 1.05.464 1.364.31.315.748.472 1.341.472h1.791v3.658h-1.778c-1.418 0-2.552-.17-3.39-.524-.838-.354-1.456-.944-1.83-1.757-.374-.813-.567-1.928-.567-3.318l.013-4.694h-1.908v-3.173h1.908l.012-3.462h3.97l-.013 3.462h3.583v3.16h-3.583ZM208.362 26.395c-.503-.8-1.212-1.403-2.153-1.81-.941-.406-2.075-.602-3.415-.602-.477 0-.993.013-1.547.026-.554.013-1.096.04-1.624.079-.516.026-.967.065-1.353.091v3.659c.541-.027 1.121-.066 1.778-.092a424.02 424.02 0 0 0 1.843-.079c.58-.013 1.031-.026 1.328-.026.631 0 1.083.144 1.366.446.271.288.413.721.413 1.311h-2.063c-1.185 0-2.229.144-3.145.433-.915.288-1.636.747-2.152 1.364-.516.616-.786 1.429-.786 2.412 0 .879.206 1.64.606 2.269a3.94 3.94 0 0 0 1.662 1.455c.709.341 1.521.512 2.436.512s1.689-.17 2.307-.512a3.763 3.763 0 0 0 1.47-1.455c.141-.263.27-.551.361-.853v2.479h3.402v-8.065c0-1.219-.245-2.242-.734-3.042Zm-3.712 7.606c-.194.34-.426.577-.722.708-.297.13-.632.21-1.006.21-.58 0-1.031-.145-1.353-.446-.309-.302-.477-.682-.477-1.167 0-.499.155-.892.477-1.194.309-.301.761-.445 1.353-.445h2.063v.944c-.026.59-.142 1.049-.335 1.39ZM224.615 29.962v7.553h-4.305v-7.723c0-.604-.181-1.115-.542-1.508-.361-.394-.85-.59-1.443-.59-.606 0-1.083.196-1.47.59-.373.393-.567.904-.567 1.547v7.684h-4.305v-17.57h4.305v6.437c.323-.826.787-1.455 1.379-1.888.645-.459 1.431-.695 2.372-.695h.193c1.418 0 2.501.525 3.248 1.56.761 1.05 1.135 2.584 1.135 4.603ZM232 19.944v17.57h-4.305V23.118h-1.469v-3.173H232Z"/></svg>